<svg width="32" height="32" xmlns="http://www.w3.org/2000/svg">
  <polygon points="15,30 15,27 11,23 8,23" fill="rgb(208,0,0)" />
  <polygon points="15,30 15,27 19,23 22,23" fill="rgb(208,0,0)" />
  <polygon points="8,23 11,20 19,20 22,23" fill="rgb(208,0,0)" />

  <polygon points="0,15 3,15 7,11 7,8" fill="rgb(208,0,0)" />
  <polygon points="0,15 3,15 7,19 7,22" fill="rgb(208,0,0)" />
  <polygon points="7,8 10,11 10,19 7,22" fill="rgb(208,0,0)" />

  <polygon points="15,3 15,0 8,7 11,7" fill="rgb(208,0,0)" />
  <polygon points="15,3 15,0 22,7 19,7" fill="rgb(208,0,0)" />
  <polygon points="8,7 11,10 19,10 22,7" fill="rgb(208,0,0)" />

  <polygon points="30,15 27,15 23,11 23,8" fill="rgb(208,0,0)" />
  <polygon points="30,15 27,15 23,19 23,22" fill="rgb(208,0,0)" />
  <polygon points="23,8 20,11 20,19 23,22" fill="rgb(208,0,0)" />
</svg>
