<?xml version="1.0" encoding="UTF-8" standalone="no"?>
<!-- Created with Inkscape (http://www.inkscape.org/) -->

<svg
   version="1.1"
   id="svg9"
   xml:space="preserve"
   width="1066.6667"
   height="1066.6667"
   viewBox="0 0 1066.6667 1066.6667"
   xmlns="http://www.w3.org/2000/svg"
   xmlns:svg="http://www.w3.org/2000/svg"><defs
     id="defs13"><clipPath
       clipPathUnits="userSpaceOnUse"
       id="clipPath23"><path
         d="M 0,800 H 800 V 0 H 0 Z"
         id="path21" /></clipPath><linearGradient
       x1="0"
       y1="0"
       x2="1"
       y2="0"
       gradientUnits="userSpaceOnUse"
       gradientTransform="matrix(-309.61237,7.0768542,7.0768542,309.61237,380.22989,475.53891)"
       spreadMethod="pad"
       id="linearGradient47"><stop
         style="stop-opacity:1;stop-color:#c7ffff"
         offset="0"
         id="stop43" /><stop
         style="stop-opacity:1;stop-color:#00c2ff"
         offset="1"
         id="stop45" /></linearGradient><linearGradient
       x1="0"
       y1="0"
       x2="1"
       y2="0"
       gradientUnits="userSpaceOnUse"
       gradientTransform="matrix(-309.61237,7.0768542,7.0768542,309.61237,380.17441,473.11176)"
       spreadMethod="pad"
       id="linearGradient67"><stop
         style="stop-opacity:1;stop-color:#c7ffff"
         offset="0"
         id="stop63" /><stop
         style="stop-opacity:1;stop-color:#00c2ff"
         offset="1"
         id="stop65" /></linearGradient><linearGradient
       x1="0"
       y1="0"
       x2="1"
       y2="0"
       gradientUnits="userSpaceOnUse"
       gradientTransform="matrix(284.84338,-33.615055,-33.615055,-284.84338,450.97214,496.66141)"
       spreadMethod="pad"
       id="linearGradient87"><stop
         style="stop-opacity:1;stop-color:#ffff72"
         offset="0"
         id="stop83" /><stop
         style="stop-opacity:1;stop-color:#ffbd00"
         offset="1"
         id="stop85" /></linearGradient><linearGradient
       x1="0"
       y1="0"
       x2="1"
       y2="0"
       gradientUnits="userSpaceOnUse"
       gradientTransform="matrix(284.84338,-33.615055,-33.615055,-284.84338,446.97952,462.82925)"
       spreadMethod="pad"
       id="linearGradient107"><stop
         style="stop-opacity:1;stop-color:#ffff72"
         offset="0"
         id="stop103" /><stop
         style="stop-opacity:1;stop-color:#ffbd00"
         offset="1"
         id="stop105" /></linearGradient><linearGradient
       x1="0"
       y1="0"
       x2="1"
       y2="0"
       gradientUnits="userSpaceOnUse"
       gradientTransform="matrix(14.153709,-199.92114,-199.92114,-14.153709,379.06641,446.44363)"
       spreadMethod="pad"
       id="linearGradient127"><stop
         style="stop-opacity:1;stop-color:#7aff8e"
         offset="0"
         id="stop123" /><stop
         style="stop-opacity:1;stop-color:#51743b"
         offset="1"
         id="stop125" /></linearGradient><linearGradient
       x1="0"
       y1="0"
       x2="1"
       y2="0"
       gradientUnits="userSpaceOnUse"
       gradientTransform="matrix(14.153709,-199.92114,-199.92114,-14.153709,387.74503,447.05807)"
       spreadMethod="pad"
       id="linearGradient147"><stop
         style="stop-opacity:1;stop-color:#7aff8e"
         offset="0"
         id="stop143" /><stop
         style="stop-opacity:1;stop-color:#51743b"
         offset="1"
         id="stop145" /></linearGradient><linearGradient
       x1="0"
       y1="0"
       x2="1"
       y2="0"
       gradientUnits="userSpaceOnUse"
       gradientTransform="matrix(24.768988,283.07416,283.07416,-24.768988,393.74988,492.75095)"
       spreadMethod="pad"
       id="linearGradient167"><stop
         style="stop-opacity:1;stop-color:#ffff72"
         offset="0"
         id="stop163" /><stop
         style="stop-opacity:1;stop-color:#ff2d00"
         offset="1"
         id="stop165" /></linearGradient><linearGradient
       x1="0"
       y1="0"
       x2="1"
       y2="0"
       gradientUnits="userSpaceOnUse"
       gradientTransform="matrix(24.768988,283.07416,283.07416,-24.768988,377.47363,494.17511)"
       spreadMethod="pad"
       id="linearGradient187"><stop
         style="stop-opacity:1;stop-color:#ffff72"
         offset="0"
         id="stop183" /><stop
         style="stop-opacity:1;stop-color:#ff2d00"
         offset="1"
         id="stop185" /></linearGradient><clipPath
       clipPathUnits="userSpaceOnUse"
       id="clipPath197"><path
         d="M 0,800 H 800 V 0 H 0 Z"
         id="path195" /></clipPath></defs><g
     id="g15"
     transform="matrix(1.3333333,0,0,-1.3333333,0,1066.6667)"><g
       id="g31"><g
         id="g33"><g
           id="g39"><g
             id="g41"><path
               d="m 171.346,512.648 c -14.222,-6.63 -24.03,-20.651 -24.03,-36.877 v 0 c 0,-22.621 19.057,-40.958 42.564,-40.958 v 0 c 13.595,0 25.692,6.141 33.485,15.689 v 0 c 1.172,1.429 17.746,21.253 34.777,21.253 v 0 c 16.837,0 37.569,-10.275 40.077,-11.922 v 0 l -41.836,50.389 c -5.162,3.423 -10.723,6.475 -16.712,8.915 v 0 c -9.388,3.824 -18.449,5.297 -26.834,5.298 v 0 c -18.152,0 -33.145,-6.9 -41.491,-11.787"
               style="fill:url(#linearGradient47);stroke:none"
               id="path49" /></g></g></g></g><g
       id="g51"><g
         id="g53"><g
           id="g59"><g
             id="g61"><path
               d="m 321.061,457.333 c 7.503,-5.637 15.685,-9.858 24.162,-11.069 v 0 c 33.729,-4.819 33.926,26.859 33.926,26.859 v 0 c 0,0 -11.309,-12.723 -32.513,-7.068 v 0 c -26.323,7.019 -61.09,34.914 -64.021,37.291 v 0 z"
               style="fill:url(#linearGradient67);stroke:none"
               id="path69" /></g></g></g></g><g
       id="g71"><g
         id="g73"><g
           id="g79"><g
             id="g81"><path
               d="m 563.626,495.634 c 0,-18.432 15.55,-16.965 15.55,-16.965 v 0 c 0,0 -5.655,1.414 -5.655,8.482 v 0 c 0,7.068 4.948,9.896 9.895,9.896 v 0 c 4.948,0 9.895,-5.655 9.188,-12.016 v 0 c -0.706,-6.362 -1.413,-15.55 -15.549,-15.55 v 0 c -14.137,0 -18.377,7.068 -31.099,7.068 v 0 c -7.464,0 -10.552,-2.432 -15.824,-4.442 v 0 l 4.107,-4.915 27.931,-33.429 c 2.303,-0.445 4.667,-1.01 7.111,-1.742 v 0 c 28.271,-8.483 83.403,5.653 83.403,50.889 v 0 c 0,45.236 -45.236,46.65 -45.236,46.65 v 0 c -26.859,0 -43.822,-22.618 -43.822,-33.926"
               style="fill:url(#linearGradient87);stroke:none"
               id="path89" /></g></g></g></g><g
       id="g91"><g
         id="g93"><g
           id="g99"><g
             id="g101"><path
               d="m 411.662,469.481 c 48.77,7.775 71.388,-21.911 91.179,-31.807 v 0 c 12.278,-6.138 24.013,-3.573 37.902,-2.766 v 0 l -28.911,34.602 c -18.043,0.601 -16.267,11.28 -47.866,11.28 v 0 c -32.513,0 -52.304,-11.309 -52.304,-11.309"
               style="fill:url(#linearGradient107);stroke:none"
               id="path109" /></g></g></g></g><g
       id="g111"><g
         id="g113"><g
           id="g119"><g
             id="g121"><path
               d="m 392.875,426.436 -13.836,-7.961 -1.844,-25.309 -9.021,-22.619 -5.446,-41.779 -14.456,-10.212 -0.379,-16.53 4.712,5.639 2.441,2.923 10.894,13.038 28.912,34.602 8.325,9.964 21.043,25.186 -4.087,5.173 -3.087,42.931 -21.939,18.443 z"
               style="fill:url(#linearGradient127);stroke:none"
               id="path129" /></g></g></g></g><g
       id="g131"><g
         id="g133"><g
           id="g139"><g
             id="g141"><path
               d="m 426.792,371.957 -10.515,-12.584 -27.93,-33.428 -4.106,-4.915 -26.982,-32.293 -9.943,-11.899 -0.263,-11.477 47.395,-48.679 16.847,9.32 11.789,24.211 26.318,14.387 3.545,17.951 -11.159,32.226 -2.31,59.29 -5.308,6.719 z"
               style="fill:url(#linearGradient147);stroke:none"
               id="path149" /></g></g></g></g><g
       id="g151"><g
         id="g153"><g
           id="g159"><g
             id="g161"><path
               d="m 425.514,651.952 -10.182,-12.186 -27.045,-32.369 -3.976,-4.759 -26.128,-31.269 c 4.599,-14.251 9.966,-24.095 9.966,-39.747 v 0 c 0,-27.376 27.377,-50.647 27.377,-50.647 v 0 c -4.791,19.849 0.684,23.956 7.529,51.332 v 0 c 6.844,27.376 26.691,32.167 39.011,69.125 v 0 c 11.759,35.277 4.107,57.491 4.107,53.385 v 0 c 0,-4.106 -6.845,-12.32 -6.845,-12.32 v 0 c 0.638,8.081 -0.114,16.065 -1.838,23.788 v 0 z"
               style="fill:url(#linearGradient167);stroke:none"
               id="path169" /></g></g></g></g><g
       id="g171"><g
         id="g173"><g
           id="g179"><g
             id="g181"><path
               d="m 392.788,712.308 c -2.286,-8.385 -14.757,-23.143 -25.364,-42.607 v 0 c 0,10e-4 0.001,0.005 0.001,0.005 v 0 c 0,0 -2.013,5.643 -0.644,16.593 v 0 c -9.583,-9.581 -17.49,-42.44 -14.905,-78.71 v 0 c 0.002,-0.023 0.003,-0.042 0.005,-0.066 v 0 c 0.28,-6.712 0.92,-12.584 1.796,-17.826 v 0 l 2.364,2.83 10.549,12.625 27.995,33.506 8.061,9.647 29.373,35.154 c -13.865,33.78 -42.021,59.106 -42.021,59.106 v 0 c 0,0 6.897,-15.2 2.79,-30.257"
               style="fill:url(#linearGradient187);stroke:none"
               id="path189" /></g></g></g></g><g
       id="g191"><g
         id="g193"
         clip-path="url(#clipPath197)"><g
           id="g199"
           transform="translate(168.8335,483.3774)"><path
             d="m 0,0 c -1.063,0 -2.138,0.3 -3.093,0.926 -2.606,1.711 -3.34,5.2 -1.637,7.811 0.454,0.696 11.315,17.069 28.061,19.064 3.109,0.373 5.914,-1.844 6.283,-4.946 0.37,-3.1 -1.844,-5.914 -4.946,-6.283 C 13.216,15.208 4.816,2.67 4.733,2.544 3.645,0.896 1.839,0 0,0"
             style="fill:#ffffff;fill-opacity:1;fill-rule:nonzero;stroke:none"
             id="path201" /></g><g
           id="g203"
           transform="translate(243.4731,142.3418)"><path
             d="m 0,0 h 13.435 c 15.05,0.158 22.628,5.354 22.725,15.592 0,7.217 -4.282,11.622 -12.839,13.208 -2.951,0.554 -6.493,0.833 -10.626,0.833 H 0 Z m -22.426,-46.297 v 90.212 h 36.743 c 29.121,-0.159 43.73,-9.602 43.828,-28.323 0,-12.459 -6.494,-21.146 -19.475,-26.066 -6.792,-2.54 -14.713,-3.808 -23.762,-3.808 H 0 v -32.015 z"
             style="fill:#ffffff;fill-opacity:1;fill-rule:nonzero;stroke:none"
             id="path205" /></g><g
           id="g207"
           transform="translate(385.9067,109.9697)"><path
             d="m 0,0 c 10.133,0 17.613,4.045 22.432,12.138 3.244,5.316 4.872,11.784 4.872,19.4 0,13.091 -4.281,22.177 -12.844,27.253 -4.23,2.459 -9.05,3.691 -14.46,3.691 -10.529,0 -18.151,-4.165 -22.874,-12.498 -2.855,-5.076 -4.282,-11.225 -4.282,-18.446 0,-12.773 4.081,-21.897 12.248,-27.373 C -10.678,1.389 -5.709,0 0,0 m 0,-15.592 c -16.231,0 -28.927,4.84 -38.074,14.522 -7.972,8.408 -11.956,19.28 -11.956,32.608 0,16.821 6.098,29.397 18.301,37.727 8.654,5.793 19.234,8.689 31.729,8.689 16.626,0 29.517,-4.882 38.664,-14.639 C 46.241,55.061 50.029,44.471 50.029,31.538 50.029,15.193 44.223,2.696 32.611,-5.951 23.853,-12.377 12.987,-15.592 0,-15.592"
             style="fill:#ffffff;fill-opacity:1;fill-rule:nonzero;stroke:none"
             id="path209" /></g><g
           id="g211"
           transform="translate(477.4219,96.0449)"><path
             d="m 0,0 v 90.212 h 24.787 l 19.04,-42.248 c 1.278,-3.095 3.542,-8.888 6.786,-17.376 h 0.74 c 0.687,1.741 1.673,4.323 2.952,7.735 1.674,4.364 2.951,7.574 3.84,9.641 l 18.592,42.248 h 24.794 V 0 h -20.37 v 37.61 c 0,4.36 0.935,14.24 2.81,29.634 h -0.74 L 74.227,46.06 56.964,8.213 H 44.119 L 26.708,46.06 17.853,67.244 h -0.59 C 19.131,51.771 20.064,41.892 20.064,37.61 V 0 Z"
             style="fill:#ffffff;fill-opacity:1;fill-rule:nonzero;stroke:none"
             id="path213" /></g><g
           id="g215"
           transform="translate(222.293,57.4346)"><path
             d="M 0,0 V 25.339 H 19.042 V 22.64 H 4.212 V 14.68 H 16.673 V 11.943 H 4.212 v -9.21 h 15.311 l 0,-2.733 z"
             style="fill:#ffffff;fill-opacity:1;fill-rule:nonzero;stroke:none"
             id="path217" /></g><g
           id="g219"
           transform="translate(248.6982,57.4346)"><path
             d="M 0,0 V 25.339 H 4.344 L 16.318,9.38 19.831,4.149 h 0.217 c -0.35,4.119 -0.525,6.783 -0.525,7.999 V 25.339 H 23.47 V 0 H 19.216 L 7.195,15.993 3.646,21.224 H 3.471 c 0.024,-0.54 0.096,-1.371 0.217,-2.498 0.205,-2.408 0.307,-4.215 0.307,-5.433 L 3.995,0 Z"
             style="fill:#ffffff;fill-opacity:1;fill-rule:nonzero;stroke:none"
             id="path221" /></g><g
           id="g223"
           transform="translate(287.998,57.4346)"><path
             d="m 0,0 v 22.64 h -9.955 v 2.699 H 14.173 V 22.64 H 4.17 V 0 Z"
             style="fill:#ffffff;fill-opacity:1;fill-rule:nonzero;stroke:none"
             id="path225" /></g><g
           id="g227"
           transform="translate(308.0039,57.4346)"><path
             d="M 0,0 V 25.339 H 19.042 V 22.64 H 4.212 V 14.68 H 16.673 V 11.943 H 4.212 v -9.21 h 15.311 l 0,-2.733 z"
             style="fill:#ffffff;fill-opacity:1;fill-rule:nonzero;stroke:none"
             id="path229" /></g><g
           id="g231"
           transform="translate(338.6211,80.1768)"><path
             d="m 0,0 v -9.413 h 5.525 c 5.297,0.043 7.954,1.676 7.985,4.891 0,2.34 -1.507,3.768 -4.514,4.287 C 8.002,-0.079 6.845,0 5.525,0 Z M 18.644,-22.742 H 13.907 L 5.923,-12.013 H 0 V -22.742 H -4.212 V 2.597 H 6.14 c 7.635,-0.045 11.467,-2.416 11.497,-7.119 0,-3.215 -1.844,-5.433 -5.532,-6.647 -0.614,-0.181 -1.253,-0.338 -1.928,-0.474 z"
             style="fill:#ffffff;fill-opacity:1;fill-rule:nonzero;stroke:none"
             id="path233" /></g><g
           id="g235"
           transform="translate(369.8042,57.4346)"><path
             d="m 0,0 v 22.64 h -9.955 v 2.699 H 14.173 V 22.64 H 4.17 V 0 Z"
             style="fill:#ffffff;fill-opacity:1;fill-rule:nonzero;stroke:none"
             id="path237" /></g><g
           id="g239"
           transform="translate(393.9375,67.7266)"><path
             d="M 0,0 H 9.955 L 8.376,3.881 C 7.677,5.521 6.562,8.379 5.043,12.45 H 4.869 C 3.845,9.594 2.748,6.737 1.579,3.881 Z m 14.125,-10.292 -3.158,7.729 H -1.054 l -3.2,-7.729 H -8.466 L 2.718,15.047 h 4.651 l 11.143,-25.339 z"
             style="fill:#ffffff;fill-opacity:1;fill-rule:nonzero;stroke:none"
             id="path241" /></g><path
           d="m 417.047,82.773 h 4.212 V 57.434 h -4.212 z"
           style="fill:#ffffff;fill-opacity:1;fill-rule:nonzero;stroke:none"
           id="path243" /><g
           id="g245"
           transform="translate(430.207,57.4346)"><path
             d="M 0,0 V 25.339 H 4.345 L 16.317,9.38 19.831,4.149 h 0.217 c -0.35,4.119 -0.525,6.783 -0.525,7.999 V 25.339 H 23.47 V 0 H 19.216 L 7.194,15.993 3.646,21.224 H 3.471 c 0.024,-0.54 0.096,-1.371 0.217,-2.498 0.205,-2.408 0.307,-4.215 0.307,-5.433 L 3.995,0 Z"
             style="fill:#ffffff;fill-opacity:1;fill-rule:nonzero;stroke:none"
             id="path247" /></g><g
           id="g249"
           transform="translate(462.6191,57.4346)"><path
             d="m 0,0 v 25.339 h 5.05 l 6.315,-13.565 c 0.031,-0.066 0.82,-1.819 2.368,-5.262 h 0.217 l 2.241,5.262 6.267,13.565 h 5.05 V 0 h -3.904 v 14.037 c 0,1.438 0.174,3.923 0.524,7.457 H 23.953 L 21.368,15.725 15.095,2.564 H 12.329 L 6.099,15.725 3.472,21.494 H 3.29 c 0.326,-4.095 0.488,-6.58 0.488,-7.457 L 3.778,0 Z"
             style="fill:#ffffff;fill-opacity:1;fill-rule:nonzero;stroke:none"
             id="path251" /></g><g
           id="g253"
           transform="translate(499.0693,57.4346)"><path
             d="M 0,0 V 25.339 H 19.042 V 22.64 H 4.212 V 14.68 H 16.674 V 11.943 H 4.212 V 2.733 H 19.523 V 0 Z"
             style="fill:#ffffff;fill-opacity:1;fill-rule:nonzero;stroke:none"
             id="path255" /></g><g
           id="g257"
           transform="translate(525.4746,57.4346)"><path
             d="M 0,0 V 25.339 H 4.345 L 16.317,9.38 19.831,4.149 h 0.217 c -0.35,4.119 -0.525,6.783 -0.525,7.999 v 13.191 h 3.948 V 0 H 19.216 L 7.194,15.993 3.646,21.224 H 3.471 c 0.024,-0.54 0.096,-1.371 0.217,-2.498 0.205,-2.408 0.307,-4.215 0.307,-5.433 L 3.995,0 Z"
             style="fill:#ffffff;fill-opacity:1;fill-rule:nonzero;stroke:none"
             id="path259" /></g><g
           id="g261"
           transform="translate(564.7803,57.4346)"><path
             d="m 0,0 v 22.64 h -9.954 v 2.699 H 14.173 V 22.64 H 4.17 L 4.17,0 Z"
             style="fill:#ffffff;fill-opacity:1;fill-rule:nonzero;stroke:none"
             id="path263" /></g></g></g></g></svg>
